<svg id="Layer_1" height="512" viewBox="0 0 512 512" width="512" xmlns="http://www.w3.org/2000/svg" xmlns:xlink="http://www.w3.org/1999/xlink" data-name="Layer 1"><linearGradient id="linear-gradient" gradientUnits="userSpaceOnUse" x1="256.5" x2="256.5" y1="26" y2="481.588"><stop offset="0" stop-color="#00efd1"/><stop offset="1" stop-color="#00acea"/></linearGradient><linearGradient id="linear-gradient-2" x1="256" x2="256" xlink:href="#linear-gradient" y1="26" y2="482.04"/><linearGradient id="linear-gradient-3" x1="256" x2="256" xlink:href="#linear-gradient" y1="26" y2="481.588"/><linearGradient id="linear-gradient-4" x1="228.136" x2="228.136" xlink:href="#linear-gradient" y1="26" y2="481.588"/><linearGradient id="linear-gradient-5" x1="204.772" x2="204.772" xlink:href="#linear-gradient" y1="26" y2="481.588"/><linearGradient id="linear-gradient-6" x1="228.369" x2="228.369" xlink:href="#linear-gradient" y1="26" y2="481.588"/><linearGradient id="linear-gradient-7" x1="283.864" x2="283.864" xlink:href="#linear-gradient" y1="26" y2="481.588"/><linearGradient id="linear-gradient-8" x1="307.228" x2="307.228" xlink:href="#linear-gradient" y1="26" y2="481.588"/><linearGradient id="linear-gradient-9" x1="283.631" x2="283.631" xlink:href="#linear-gradient" y1="26" y2="481.588"/><path d="m407 112a6 6 0 0 0 -6-6h-289a6 6 0 0 0 -6 6v288a6 6 0 0 0 6 6h289a6 6 0 0 0 6-6zm-13 282h-276v-276h276z" fill="url(#linear-gradient)"/><path d="m478.02 164a6 6 0 0 0 0-12h-28.02v-41.72a48.082 48.082 0 0 0 -48.28-48.28h-41.72v-28.02a6 6 0 0 0 -12 0v28.02h-86v-28.02a6 6 0 0 0 -12 0v28.02h-86v-28.02a6 6 0 1 0 -12 0v28.02h-41.72a48.082 48.082 0 0 0 -48.28 48.28v41.72h-28.02a6 6 0 1 0 0 12h28.02v86h-28.02a6 6 0 1 0 0 12h28.02v86h-28.02a6 6 0 1 0 0 12h28.02v41.72a48.082 48.082 0 0 0 48.28 48.28h41.72v28.02a6 6 0 0 0 12 0v-28.02h86v28.02a6 6 0 0 0 12 0v-28.02h86v28.02a6 6 0 0 0 12 0v-28.02h41.72a48.082 48.082 0 0 0 48.28-48.28v-41.72h28.02a6 6 0 0 0 0-12h-28.02v-86h28.02a6 6 0 0 0 0-12h-28.02v-86zm-39.02 238.36a36.64 36.64 0 0 1 -36.64 36.64h-291.72a36.64 36.64 0 0 1 -36.64-36.64v-291.72a36.64 36.64 0 0 1 36.64-36.64h291.72a36.64 36.64 0 0 1 36.64 36.64z" fill="url(#linear-gradient-2)"/><path d="m155.759 319.615a24.933 24.933 0 0 0 4.62 24.37c5.611 6.547 14.345 9.442 23.13 9.442a40.558 40.558 0 0 0 13.626-2.358 27.223 27.223 0 0 0 24.07 1.918c4.837 7.433 10.45 9.79 14.639 10.368a23.094 23.094 0 0 0 3.156.218c6.688 0 12.068-2.961 15.9-5.79a30.45 30.45 0 0 0 17.073 5.789 23.42 23.42 0 0 0 3.186-.217c7.135-.984 12.072-6.1 15.045-10.438a28.43 28.43 0 0 0 12.522 1.932 27.954 27.954 0 0 0 12.057-3.809 40.56 40.56 0 0 0 13.711 2.387c8.784 0 17.519-2.9 23.13-9.442a24.933 24.933 0 0 0 4.62-24.37c10.517-6.662 15.5-16.478 12.849-26.118-1.855-6.76-7.1-12-11.407-15.252a29.748 29.748 0 0 0 2.079-18.593c-1.931-9.343-8.053-17.681-16.837-23.014a24.075 24.075 0 0 0 -3.554-16.513 25.629 25.629 0 0 0 -10.09-8.7q.5-1.216.881-2.469c3-9.923.829-24.161-11.04-31.971a33.471 33.471 0 0 0 -12.64-5.041c-2.488-11.267-12.161-20.509-24.733-22.922a35.735 35.735 0 0 0 -26.705 5.7 33.263 33.263 0 0 0 -25.793-5.7c-12.3 2.362-21.471 11.449-23.789 22.93a33.489 33.489 0 0 0 -12.584 5.033c-11.869 7.81-14.044 22.048-11.04 31.972q.378 1.251.881 2.468a25.629 25.629 0 0 0 -10.09 8.7 24.075 24.075 0 0 0 -3.554 16.513c-8.784 5.333-14.906 13.671-16.837 23.014a29.741 29.741 0 0 0 2.079 18.593c-4.31 3.247-9.552 8.492-11.407 15.252-2.65 9.64 2.329 19.456 12.846 26.118zm123.728-158.81a19.645 19.645 0 0 1 14.489 11.295 39.892 39.892 0 0 0 -20.018 10.75 6 6 0 1 0 8.352 8.617c9.085-8.806 20.945-10.553 30.216-4.455 6.428 4.229 7.96 12.493 6.151 18.47a16.562 16.562 0 0 1 -2.928 5.464 6 6 0 0 0 3.694 9.641c.066.011 6.742 1.341 9.907 6.145a10.911 10.911 0 0 1 1.722 5.095c-15.618-3.633-32.843 1.826-42.169 14.573a6 6 0 1 0 9.684 7.086c7.981-10.91 25.2-14.07 37.6-6.9 6.221 3.595 10.53 9.245 11.823 15.5a17.771 17.771 0 0 1 -3.253 14.546 5.949 5.949 0 0 0 2.412 9.076c1.31.616 8.78 5.257 10.349 10.97 1.727 6.292-5.186 11.972-11.63 14.925a6 6 0 0 0 -2.549 8.7 13.241 13.241 0 0 1 -.83 15.882c-5.266 6.144-20.724 7.511-29.317.49a14.09 14.09 0 0 1 -4.766-7.78 6 6 0 1 0 -11.656 2.848 26.64 26.64 0 0 0 5.625 11.082c-.2.023-.4.053-.608.069a18.2 18.2 0 0 1 -10.746-2.927 6 6 0 0 0 -8.7 2.584c-1.711 3.792-5.047 8.405-8.821 8.925-4.762.659-9.8-1.9-12.516-4.073v-55.472a5.951 5.951 0 0 0 0-2.269v-26.217a5.954 5.954 0 0 0 .5-3.127 5.231 5.231 0 0 1 .1-1.795c.782-3.336 5.144-6.082 8.643-7.419a6 6 0 1 0 -4.285-11.209 35.187 35.187 0 0 0 -4.962 2.366v-77.017a23.76 23.76 0 0 1 18.487-4.439zm-125.006 135.868c1.569-5.713 9.039-10.354 10.276-10.938a6 6 0 0 0 2.485-9.108 17.771 17.771 0 0 1 -3.253-14.546c1.293-6.255 5.6-11.905 11.823-15.5 12.4-7.167 29.62-4.008 37.6 6.9a6 6 0 1 0 9.688-7.081c-9.323-12.743-26.541-18.2-42.154-14.576a10.985 10.985 0 0 1 1.668-5.032c3.184-4.906 9.918-6.2 9.946-6.205a6 6 0 0 0 3.694-9.641 16.568 16.568 0 0 1 -2.928-5.463c-1.809-5.978-.277-14.242 6.151-18.471 9.271-6.1 21.131-4.352 30.216 4.455a6 6 0 1 0 8.352-8.617 39.869 39.869 0 0 0 -20.165-10.779 17.813 17.813 0 0 1 13.636-11.262 21.369 21.369 0 0 1 17.484 4.404v109.978a30.159 30.159 0 0 0 -3.53-1.664 6 6 0 1 0 -4.287 11.208c2.229.853 6.487 3.259 7.817 6.585v55.844c-3.385 2.735-7.092 4.918-11.516 4.3-2.089-.288-5.228-2.07-8.321-8.925a6 6 0 0 0 -8.705-2.584 16.863 16.863 0 0 1 -10.5 2.927c-.127-.01-.253-.03-.379-.043a26.629 26.629 0 0 0 5.646-11.108 6 6 0 1 0 -11.656-2.848 14.09 14.09 0 0 1 -4.766 7.78c-8.593 7.022-24.051 5.654-29.317-.49a13.241 13.241 0 0 1 -.83-15.882 6 6 0 0 0 -2.549-8.7c-6.44-2.946-13.353-8.626-11.626-14.918z" fill="url(#linear-gradient-3)"/><path d="m225.493 218.783.047-.015a18.273 18.273 0 0 0 4.484 1.426 18.577 18.577 0 0 0 3.279.289 20.877 20.877 0 0 0 5.83-.858 6 6 0 0 0 -3.352-11.523 8.031 8.031 0 0 1 -3.647.279c-3.642-.65-6.612-4.456-7.39-9.471a6 6 0 1 0 -11.858 1.84 26.111 26.111 0 0 0 3.6 9.8 10.711 10.711 0 0 0 -2.808 4.621 10.343 10.343 0 0 0 .194 6.328 6 6 0 0 0 11.625-2.715z" fill="url(#linear-gradient-4)"/><path d="m188.011 293.154a12.835 12.835 0 0 0 .216 19.815 6 6 0 1 0 7.964-8.976c-.6-.53-.779-1.062-.715-1.256a3.3 3.3 0 0 1 2.508-1.388 24.439 24.439 0 0 0 8.88 2.232q.671.036 1.323.036a26.349 26.349 0 0 0 15.635-5.446 6 6 0 1 0 -7.242-9.568 14.356 14.356 0 0 1 -9.051 3 12.283 12.283 0 0 1 -4.575-1.189 5.969 5.969 0 0 0 -1.3-.7 14.354 14.354 0 0 1 -6.442-9.209 6 6 0 1 0 -11.743 2.467 26.514 26.514 0 0 0 4.542 10.182z" fill="url(#linear-gradient-5)"/><path d="m225.241 307.2a6 6 0 0 0 -3.909 11.345c4.627 1.595 6.012 3.269 6.12 3.568a4.692 4.692 0 0 1 -.51 1.884 6 6 0 0 0 9 7.938 15.64 15.64 0 0 0 3.457-8.691c.382-4.036-.949-11.491-14.158-16.044z" fill="url(#linear-gradient-6)"/><path d="m272.867 219.625a20.841 20.841 0 0 0 5.83.858 18.652 18.652 0 0 0 3.278-.288 18.325 18.325 0 0 0 4.485-1.427l.047.015a6 6 0 0 0 11.625 2.715 10.342 10.342 0 0 0 .195-6.325 10.733 10.733 0 0 0 -2.809-4.624 26.122 26.122 0 0 0 3.6-9.8 6 6 0 1 0 -11.858-1.84c-.778 5.015-3.748 8.821-7.39 9.472a8.046 8.046 0 0 1 -3.647-.28 6 6 0 0 0 -3.352 11.523z" fill="url(#linear-gradient-7)"/><path d="m287.015 289.766a6 6 0 0 0 1.163 8.4 26.349 26.349 0 0 0 15.635 5.446q.653 0 1.322-.036a24.449 24.449 0 0 0 8.882-2.232 3.3 3.3 0 0 1 2.507 1.389c.064.193-.118.725-.715 1.255a6 6 0 1 0 7.964 8.976 12.833 12.833 0 0 0 .215-19.814 26.505 26.505 0 0 0 4.54-10.19 6 6 0 1 0 -11.743-2.467 14.349 14.349 0 0 1 -6.443 9.209 5.985 5.985 0 0 0 -1.3.7 12.283 12.283 0 0 1 -4.575 1.189 14.345 14.345 0 0 1 -9.051-3 6 6 0 0 0 -8.401 1.175z" fill="url(#linear-gradient-8)"/><path d="m286.759 307.2c-9.14 3.149-14.83 10.032-14.158 17.128a13.467 13.467 0 0 0 3.457 7.607 6 6 0 1 0 9-7.938 2.047 2.047 0 0 1 -.51-.8c-.048-.5 1.425-3.035 6.12-4.653a6 6 0 0 0 -3.909-11.345z" fill="url(#linear-gradient-9)"/></svg>